<svg width="36" height="36" viewBox="0 0 36 36" fill="none" xmlns="http://www.w3.org/2000/svg">
<path d="M15.9868 10.4146L13.3328 11.7407C14.5546 13.0226 15.9027 14.0823 16.8602 14.7413C17.5472 15.214 18.4526 15.214 19.1377 14.7413C20.0951 14.0823 21.4452 13.0226 22.6651 11.7407L20.011 10.4146C18.9033 9.86179 17.0925 9.86179 15.9848 10.4146H15.9868Z" fill="#262323"/>
<path d="M33.1692 16.9939L27.787 14.3018C25.2611 16.7655 21.8078 18.2859 18 18.2859C14.1922 18.2859 10.7409 16.7655 8.21301 14.3018L2.83077 16.9939C1.72308 17.5467 1.72308 18.4541 2.83077 19.007L15.9869 25.585C17.0946 26.1379 18.9054 26.1379 20.0131 25.585L33.1692 19.007C34.2769 18.4541 34.2769 17.5467 33.1692 16.9939Z" fill="#262323"/>
</svg>
