<svg width="300" height="304" viewBox="0 0 300 304" fill="none" xmlns="http://www.w3.org/2000/svg">
<path d="M148.698 17.3366C184.639 17.3366 218.442 31.3424 243.852 56.7523C269.262 82.1623 283.268 115.965 283.268 151.906C283.268 187.847 269.262 221.65 243.852 247.06C218.442 272.47 184.639 286.476 148.698 286.476C125.533 286.476 102.707 280.506 82.6785 269.191C66.6592 260.157 52.6 247.844 41.4809 233.232C50.1766 222.291 64.2002 204.027 77.9565 183.499C105.861 141.856 119.439 110.94 119.439 89.0048C119.439 67.0696 111.795 44.5641 97.9495 27.2262C113.969 20.7044 131.182 17.3188 148.698 17.3188M148.698 0.604492C119.707 0.604492 92.6394 8.76562 69.6172 22.8961C89.7171 37.9532 102.725 61.9555 102.725 89.0048C102.725 132.662 27.0474 224.697 20.6147 232.448C47.3968 274.947 94.742 303.19 148.698 303.19C232.252 303.19 300 235.46 300 151.888C300 68.3169 232.252 0.622311 148.698 0.622311V0.604492Z" fill="#262323"/>
<path d="M38.3984 48.3774C19.3142 68.6911 5.78953 94.2793 0.22998 122.718C6.11027 125.872 12.8281 127.672 19.9735 127.672C43.0492 127.672 61.7592 108.962 61.7592 85.8865C61.7592 69.4217 52.226 55.1843 38.3984 48.3774Z" fill="#262323"/>
<path d="M143.388 172.647L102.208 296.187C116.624 300.749 131.948 303.226 147.861 303.226C231.414 303.226 299.162 235.495 299.162 151.924C299.162 132.84 295.616 114.575 289.166 97.754L182.839 133.196C166.571 138.613 148.805 156.379 143.388 172.647Z" fill="#262323"/>
</svg>
